<?xml version="1.0" standalone="no"?>
<!DOCTYPE svg PUBLIC "-//W3C//DTD SVG 20010904//EN"
 "http://www.w3.org/TR/2001/REC-SVG-20010904/DTD/svg10.dtd">
<svg version="1.0" xmlns="http://www.w3.org/2000/svg"
 width="16.000000pt" height="16.000000pt" viewBox="0 0 16.000000 16.000000"
 preserveAspectRatio="xMidYMid meet">
<metadata>
Created by potrace 1.11, written by Peter Selinger 2001-2013
</metadata>
<g transform="translate(0.000000,16.000000) scale(0.003125,-0.003125)"
fill="#000000" stroke="none">
<path d="M1599 3904 c-42 -13 -108 -75 -643 -610 -359 -359 -603 -610 -613
-632 -24 -50 -23 -155 1 -205 23 -46 1182 -1208 1229 -1232 114 -58 266 -5
323 113 25 50 25 154 0 205 -11 22 -215 234 -508 527 l-490 490 490 490 c295
295 497 505 508 527 24 51 25 155 1 204 -29 58 -85 108 -141 124 -60 18 -97
18 -157 -1z"/>
<path d="M3380 3914 c-75 -28 -139 -85 -161 -142 -20 -51 -21 -112 -3 -168 16
-52 41 -79 511 -549 l494 -495 -494 -495 c-541 -541 -529 -526 -523 -637 5
-93 69 -182 153 -212 52 -18 147 -14 190 8 49 26 1213 1194 1230 1235 24 57
27 116 7 176 -16 54 -39 78 -613 652 -387 387 -608 601 -631 611 -37 15 -135
25 -160 16z"/>
</g>
</svg>
